<?xml version="1.0" standalone="no"?>
<!DOCTYPE svg PUBLIC "-//W3C//DTD SVG 20010904//EN"
 "http://www.w3.org/TR/2001/REC-SVG-20010904/DTD/svg10.dtd">
<svg version="1.0" xmlns="http://www.w3.org/2000/svg"
 width="16.000000pt" height="16.000000pt" viewBox="0 0 16.000000 16.000000"
 preserveAspectRatio="xMidYMid meet">
<metadata>
Created by potrace 1.11, written by Peter Selinger 2001-2013
</metadata>
<g transform="translate(0.000000,16.000000) scale(0.003125,-0.003125)"
fill="#000000" stroke="none">
<path d="M2376 5083 c-7 -8 -21 -9 -89 -12 -16 -1 -26 -5 -22 -10 3 -6 -6 -8
-20 -5 -14 2 -25 0 -25 -5 0 -6 -7 -8 -15 -5 -8 4 -23 3 -32 -1 -26 -12 -45
-16 -70 -18 -12 0 -19 -5 -17 -9 3 -4 -9 -8 -25 -8 -17 0 -31 -5 -31 -12 0 -6
-3 -8 -7 -5 -3 4 -17 0 -31 -9 -13 -9 -21 -11 -17 -5 3 6 -10 2 -30 -9 -19
-11 -42 -20 -50 -20 -8 0 -15 -5 -15 -11 0 -6 -6 -9 -14 -6 -8 3 -16 1 -18 -4
-2 -5 -13 -11 -25 -12 -12 0 -19 -5 -16 -10 7 -11 -29 -5 -44 8 -7 6 -19 16
-27 23 -8 6 -20 12 -26 12 -6 0 -18 7 -27 15 -8 8 -19 13 -24 10 -5 -4 -9 -1
-9 4 0 6 -7 11 -15 11 -9 0 -18 6 -21 14 -3 8 -13 12 -25 9 -10 -3 -19 0 -19
6 0 6 -13 11 -28 11 -15 0 -34 6 -41 13 -11 10 -12 9 -6 -3 7 -12 6 -13 -6 -4
-8 6 -43 12 -78 12 -46 0 -60 -3 -50 -10 11 -8 10 -9 -4 -4 -10 3 -21 6 -23 6
-3 0 -2 6 2 13 4 7 -1 5 -12 -3 -10 -9 -32 -17 -49 -19 -16 -2 -33 -8 -37 -15
-4 -6 -8 -8 -8 -3 0 4 -14 0 -30 -8 -17 -9 -35 -13 -41 -9 -6 3 -13 -4 -16
-16 -4 -16 -8 -18 -14 -9 -6 11 -9 10 -15 -4 -3 -9 -10 -17 -16 -17 -17 0
-102 -63 -156 -117 -29 -29 -56 -53 -60 -55 -4 -2 -6 -6 -5 -10 2 -5 -4 -8
-13 -8 -8 0 -12 -4 -9 -10 3 -5 1 -10 -5 -10 -6 0 -15 -11 -22 -25 -6 -13 -15
-22 -19 -19 -5 3 -9 -1 -9 -10 0 -8 -4 -16 -8 -18 -9 -3 -77 -100 -76 -108 0
-3 -6 -11 -13 -18 -7 -7 -13 -20 -13 -28 0 -8 -4 -14 -9 -14 -5 0 -12 -13 -16
-30 -4 -16 -10 -30 -14 -30 -4 0 -8 -6 -8 -12 -1 -7 -10 -36 -21 -65 -11 -28
-18 -54 -16 -56 3 -2 -2 -16 -10 -32 -8 -15 -13 -36 -11 -46 2 -11 0 -19 -5
-19 -4 0 -8 -23 -8 -52 -1 -31 -6 -54 -14 -59 -11 -7 -11 -9 0 -9 8 0 10 -5 5
-12 -12 -21 -12 -38 0 -38 7 0 5 -5 -3 -10 -13 -9 -13 -10 0 -10 12 0 12 -2 1
-9 -9 -6 -10 -10 -2 -16 9 -5 9 -10 0 -21 -9 -11 -8 -14 2 -14 11 0 11 -2 0
-9 -12 -8 -12 -12 -2 -25 11 -13 11 -16 0 -16 -11 0 -11 -2 0 -9 13 -8 13 -12
0 -27 -9 -11 -9 -15 -1 -10 11 7 18 -23 13 -61 -1 -7 2 -13 6 -13 5 0 10 -14
11 -32 2 -18 6 -35 11 -38 4 -3 14 -16 21 -30 14 -27 60 -66 72 -62 5 1 8 -2
8 -6 0 -5 23 -9 52 -11 28 -1 56 -5 61 -8 6 -3 7 -1 3 5 -7 12 -6 13 31 17 13
1 30 8 40 16 14 11 15 11 9 1 -7 -11 -4 -12 12 -3 12 6 24 15 27 21 3 5 12 7
19 4 7 -3 16 2 19 10 3 8 15 13 26 11 11 -2 22 3 25 11 3 8 13 14 23 14 17 0
18 -10 17 -112 -2 -140 -2 -141 -14 -133 -5 3 -10 1 -10 -5 0 -6 -4 -8 -10 -5
-5 3 -10 2 -10 -3 0 -4 -9 -18 -20 -30 -12 -12 -18 -22 -15 -22 3 0 -1 -10
-10 -23 -8 -13 -13 -33 -10 -45 2 -13 -1 -22 -8 -22 -8 0 -8 -3 2 -9 9 -6 10
-11 3 -15 -6 -4 -9 -13 -5 -21 3 -8 1 -15 -3 -15 -5 0 -9 -17 -8 -38 0 -47 -5
-64 -20 -55 -6 4 -5 -1 3 -10 7 -9 9 -17 4 -17 -5 0 -9 -18 -8 -40 1 -23 -2
-43 -7 -46 -5 -3 -3 -13 4 -22 10 -12 10 -14 1 -8 -13 7 -14 -1 -17 -136 0
-27 -3 -48 -6 -48 -3 0 -6 -9 -7 -20 -1 -11 4 -20 10 -20 8 0 8 -3 2 -8 -15
-10 -16 -94 -1 -85 8 5 8 3 0 -8 -12 -16 -12 -58 -1 -76 5 -8 3 -13 -5 -13 -8
0 -9 -3 -3 -8 6 -4 10 -28 10 -54 0 -27 3 -48 6 -48 3 0 4 -12 1 -26 -3 -16
-1 -25 5 -21 5 3 10 0 10 -8 0 -8 -5 -11 -10 -8 -6 4 -7 1 -1 -8 9 -15 13 -30
17 -71 1 -16 5 -28 9 -28 4 0 5 -7 2 -15 -4 -8 -2 -15 4 -15 6 0 8 -9 5 -20
-3 -12 0 -20 7 -20 7 0 10 -8 7 -20 -3 -11 -1 -20 5 -20 5 0 6 -4 3 -10 -3 -5
-1 -10 5 -10 7 0 9 -7 6 -16 -3 -8 1 -22 9 -31 8 -8 13 -19 10 -24 -4 -5 -2
-9 2 -9 5 0 19 -23 32 -51 18 -38 25 -69 26 -127 1 -42 -2 -83 -8 -89 -5 -7
-6 -13 -1 -13 5 0 2 -5 -6 -10 -11 -7 -11 -10 -2 -10 7 0 10 -4 7 -10 -3 -5
-1 -10 6 -10 9 0 10 -3 2 -11 -7 -7 -6 -24 4 -57 8 -26 15 -53 16 -59 0 -7 5
-13 10 -13 6 0 7 -3 4 -6 -7 -7 29 -79 50 -102 6 -6 15 -21 18 -32 3 -11 12
-20 20 -20 8 0 17 -9 20 -20 3 -11 13 -20 21 -20 8 0 14 -6 14 -13 0 -7 13
-21 30 -30 17 -10 30 -22 30 -28 0 -5 5 -9 11 -9 6 0 17 -6 24 -13 34 -30 50
-42 52 -39 8 6 22 0 43 -18 12 -11 26 -17 30 -15 5 3 10 0 12 -6 2 -6 16 -12
31 -12 15 0 25 -2 22 -5 -8 -8 53 -32 81 -32 13 0 24 -5 24 -11 0 -5 4 -8 8
-5 5 3 18 -2 30 -10 16 -11 19 -20 13 -37 -4 -12 -6 -34 -5 -50 2 -15 0 -25
-5 -23 -4 3 -6 -15 -6 -39 1 -24 -2 -49 -6 -56 -4 -6 -3 -24 1 -40 5 -15 5
-29 1 -31 -4 -2 -5 -29 -2 -60 4 -31 3 -66 -1 -78 -5 -14 -4 -19 3 -14 8 5 10
-3 7 -24 -3 -23 -1 -29 11 -24 10 4 12 2 5 -9 -12 -19 -12 -69 0 -62 5 4 7 -1
3 -10 -3 -9 -2 -19 3 -22 5 -3 7 -12 3 -20 -3 -8 -1 -15 4 -15 6 0 9 -13 8
-30 -1 -16 2 -30 7 -30 5 0 7 -4 3 -9 -3 -5 1 -15 8 -23 8 -7 13 -21 11 -30
-1 -9 4 -19 12 -22 7 -3 11 -11 9 -18 -3 -8 3 -23 14 -35 11 -11 17 -23 15
-26 -5 -5 -11 -29 -13 -50 -1 -5 -7 -5 -13 -1 -10 5 -10 4 -1 -6 7 -8 9 -19 4
-29 -5 -9 -8 -28 -7 -43 1 -14 -3 -24 -8 -21 -5 4 -6 -5 -2 -21 4 -15 3 -25
-1 -23 -4 3 -8 -10 -7 -28 1 -37 38 -95 60 -95 8 0 14 -5 14 -11 0 -5 5 -7 10
-4 5 3 10 1 10 -6 0 -7 3 -10 6 -7 3 4 19 2 35 -2 16 -5 29 -5 29 -1 0 5 18 5
40 1 22 -4 40 -3 40 2 0 5 9 4 20 -2 14 -7 20 -7 20 0 0 5 11 10 24 10 14 0
32 7 40 16 9 8 22 12 28 8 7 -4 10 -4 6 1 -4 4 2 17 15 27 19 17 22 28 20 91
-4 116 -6 132 -16 138 -5 4 -5 15 2 27 7 14 8 23 1 27 -5 3 -10 15 -10 25 0
10 -5 20 -10 22 -6 2 -12 13 -13 26 0 12 -5 22 -10 22 -5 0 -7 7 -3 15 3 10
-1 15 -12 16 -11 0 -12 2 -4 6 8 3 10 9 4 16 -12 16 -30 80 -34 125 -1 12 -5
22 -8 22 -3 0 -6 28 -6 62 -1 39 -5 62 -12 61 -14 -3 -9 21 8 43 9 11 10 15 3
10 -9 -5 -13 0 -13 14 0 12 4 18 10 15 6 -3 7 1 4 9 -3 9 -11 13 -18 9 -6 -3
-2 4 9 17 11 13 14 20 8 16 -9 -5 -13 0 -13 14 0 13 4 19 12 14 7 -5 8 -3 3 7
-11 17 -16 59 -7 59 4 0 7 19 6 43 -1 23 3 50 8 60 6 11 5 17 -2 17 -6 0 -8 5
-5 10 7 11 145 10 145 -1 0 -8 33 -5 48 5 6 4 12 3 12 -2 0 -5 24 -8 53 -7 28
0 58 -3 65 -8 7 -6 12 -6 12 1 0 5 11 10 25 10 14 0 22 -5 18 -11 -4 -6 -1 -7
7 -2 19 12 202 13 218 2 7 -6 12 -6 12 0 0 5 28 8 63 8 34 -1 67 2 74 7 7 5
14 5 18 -2 3 -5 11 -10 16 -10 6 0 8 4 5 8 -2 4 34 9 81 10 51 1 92 7 101 14
13 10 14 10 8 0 -10 -16 16 -16 32 0 10 10 15 10 22 -2 5 -8 10 -10 10 -5 0 6
15 11 33 12 31 0 34 -2 35 -31 2 -31 9 -71 12 -71 6 0 4 -328 -2 -332 -13 -7
-9 -43 5 -43 8 0 7 -3 -3 -10 -8 -5 -15 -20 -15 -32 -1 -13 -4 -29 -8 -35 -5
-7 -5 -17 -2 -23 3 -5 1 -10 -5 -10 -6 0 -8 -5 -5 -10 4 -6 1 -17 -5 -25 -10
-12 -10 -15 1 -15 9 0 10 -3 4 -8 -14 -10 -47 -75 -35 -67 6 3 10 1 10 -4 0
-6 -4 -11 -10 -11 -5 0 -10 -3 -9 -8 2 -15 -14 -52 -23 -52 -5 0 -6 -4 -3 -10
3 -5 2 -10 -2 -10 -5 0 -9 -9 -9 -19 0 -11 4 -17 8 -15 4 3 8 0 8 -5 0 -6 -4
-11 -8 -11 -5 0 -8 -16 -7 -35 1 -20 -2 -38 -6 -41 -5 -3 -4 -14 1 -25 7 -11
7 -19 1 -19 -11 0 -9 -19 3 -39 6 -9 5 -12 -2 -7 -7 4 -10 -1 -9 -14 1 -11 5
-20 10 -20 4 0 6 -4 2 -9 -3 -6 2 -16 10 -23 9 -7 25 -20 35 -30 10 -9 21 -14
24 -11 3 3 12 1 19 -5 18 -15 97 -25 97 -13 0 5 9 7 20 4 11 -3 20 -10 20 -17
0 -7 4 -6 9 2 4 8 11 13 15 12 16 -5 76 12 76 21 0 6 4 8 9 5 11 -7 78 51 68
60 -4 4 -2 13 4 21 9 10 8 17 -1 28 -9 11 -9 15 -1 15 9 0 9 5 1 20 -6 11 -8
20 -4 20 3 0 1 6 -5 14 -6 8 -11 18 -9 22 4 16 -14 89 -25 103 -9 12 -9 13 1
7 12 -7 17 10 13 43 -2 7 2 10 8 6 6 -3 11 -3 12 2 2 29 9 47 19 53 8 5 9 9 2
11 -6 3 -4 18 7 40 10 20 17 43 15 52 -1 10 5 21 14 27 11 6 12 9 4 10 -7 0
-10 5 -7 10 6 9 11 33 19 77 1 7 5 15 9 19 3 4 2 15 -4 25 -5 11 -6 19 -1 19
12 0 10 74 -3 82 -5 4 -1 8 10 8 17 0 17 2 5 10 -13 9 -13 10 0 10 13 0 13 1
0 10 -11 7 -11 10 -2 10 7 0 11 4 8 8 -3 5 -6 36 -8 70 -2 34 -7 62 -13 62 -7
0 -7 3 0 8 13 9 15 52 3 52 -5 0 -4 8 1 19 6 10 7 21 4 25 -4 4 -8 12 -9 19
-2 7 -5 22 -8 34 -3 16 1 24 15 28 11 4 17 10 14 15 -3 5 3 7 15 5 11 -2 22 1
25 6 4 5 10 7 15 4 5 -3 11 -1 15 5 4 6 11 8 16 5 5 -4 9 -2 9 4 0 5 14 12 30
16 17 4 30 10 30 14 0 4 16 13 35 21 19 8 35 18 35 22 0 5 5 6 10 3 6 -3 10 1
10 9 0 8 5 18 12 22 7 5 9 2 4 -7 -4 -8 -1 -6 8 5 8 10 19 15 25 11 6 -3 11 1
11 9 0 8 9 18 20 21 11 3 20 11 20 17 0 6 3 9 6 5 6 -6 43 29 92 87 12 15 37
55 55 89 17 34 36 65 42 69 5 4 6 8 2 8 -4 0 -3 9 3 21 9 15 8 24 -2 37 -7 9
-8 13 -2 9 11 -7 13 15 19 191 2 67 7 97 18 110 8 9 19 29 22 45 4 15 12 27
18 27 6 0 7 3 4 7 -4 3 -2 12 3 18 6 7 11 24 12 38 1 14 6 23 10 21 4 -3 9 2
9 10 2 17 5 33 9 41 5 10 8 26 9 56 0 17 5 28 11 24 6 -4 7 1 3 11 -4 11 -3
15 4 11 7 -5 9 0 6 12 -3 10 0 28 6 38 7 14 7 23 -1 31 -8 8 -8 12 -1 12 5 0
9 10 9 22 -1 13 0 28 3 33 3 6 6 36 6 67 0 31 4 60 8 64 11 12 8 26 -5 18 -7
-5 -8 -3 -2 7 13 21 14 39 1 39 -8 0 -8 3 -2 8 12 8 13 27 3 37 -4 4 -2 17 4
29 6 11 11 21 11 21 0 0 -5 10 -11 22 -9 16 -9 23 1 26 8 4 8 8 2 14 -5 4 -11
44 -13 88 -1 43 -6 82 -10 85 -4 3 -8 21 -9 40 -2 67 -8 110 -14 110 -3 0 -5
18 -5 41 1 26 -4 44 -14 50 -10 6 -11 8 -2 9 9 0 10 5 3 18 -7 13 -7 22 0 29
8 8 7 13 0 17 -6 4 -11 16 -11 27 0 10 -5 19 -11 19 -5 0 -8 4 -4 9 3 6 -3 14
-12 20 -10 6 -15 11 -10 11 4 0 -1 8 -10 18 -10 11 -21 17 -25 15 -16 -8 -23
29 -23 134 0 80 3 109 11 102 6 -5 14 -6 17 -2 4 3 7 1 7 -5 0 -7 9 -12 20
-12 11 0 20 -5 20 -11 0 -5 5 -7 10 -4 6 3 10 2 10 -3 0 -5 6 -9 13 -9 21 -1
42 -8 48 -16 4 -5 30 -10 59 -12 29 -2 55 -7 58 -10 3 -3 16 2 28 10 13 8 29
13 36 10 26 -10 107 82 92 106 -3 5 0 9 5 9 6 0 11 9 11 19 0 11 6 22 13 24 9
4 8 6 -2 6 -11 1 -11 4 -1 16 10 12 10 15 -1 15 -12 0 -12 2 0 9 8 5 11 16 8
25 -4 9 -2 16 3 16 6 0 10 5 10 11 0 5 -6 7 -12 3 -10 -6 -10 -5 -1 7 14 18
14 58 -1 78 -8 11 -8 13 2 7 10 -6 12 8 10 66 -2 54 -6 72 -16 70 -8 -1 -11 2
-7 8 3 6 11 8 16 5 5 -4 9 -1 9 4 0 6 -5 11 -11 11 -8 0 -7 6 2 17 12 14 12
16 0 8 -11 -6 -13 -4 -8 8 3 9 2 19 -3 22 -4 3 -7 16 -5 30 1 14 -2 25 -6 25
-5 0 -9 14 -9 30 0 17 -4 30 -8 30 -5 0 -9 7 -10 15 -1 8 -3 22 -4 30 -1 8 -6
15 -11 15 -5 0 -7 7 -3 15 3 8 -1 21 -9 29 -8 8 -15 19 -15 24 0 14 -43 96
-52 100 -5 2 -8 10 -8 18 0 8 -5 14 -11 14 -5 0 -7 5 -4 10 3 6 1 10 -6 10 -7
0 -10 3 -7 6 7 6 1 14 -57 77 -19 21 -34 40 -35 42 0 3 0 10 0 17 0 6 -2 9 -5
6 -7 -7 -132 115 -128 124 2 4 -3 5 -11 2 -11 -4 -16 0 -16 10 0 9 -5 16 -10
16 -6 0 -20 9 -32 20 -12 11 -28 20 -35 20 -7 0 -13 5 -13 10 0 6 -7 10 -15
10 -8 0 -15 5 -15 11 0 5 -5 7 -10 4 -6 -3 -13 1 -16 9 -3 9 -10 13 -15 10
-10 -6 -52 20 -44 28 3 2 -9 3 -25 0 -18 -3 -30 0 -30 7 0 6 -12 11 -26 11
-14 0 -35 5 -46 11 -16 9 -19 8 -12 -3 6 -11 5 -11 -9 1 -14 11 -17 11 -17 0
0 -11 -2 -11 -10 1 -9 13 -10 13 -10 0 0 -12 -2 -13 -9 -1 -7 11 -9 11 -14 0
-5 -12 -6 -12 -6 0 -1 10 -4 11 -15 2 -10 -9 -16 -9 -21 -1 -5 8 -11 8 -21 -1
-8 -6 -14 -8 -14 -3 0 5 -5 2 -10 -6 -7 -11 -10 -11 -10 -2 0 8 -5 10 -12 5
-7 -4 -20 -8 -28 -10 -8 -1 -16 -6 -18 -11 -2 -6 -12 -8 -22 -5 -13 3 -22 -1
-26 -11 -5 -13 -9 -14 -20 -5 -11 9 -14 8 -14 -5 0 -10 -4 -15 -9 -11 -5 3
-12 1 -16 -5 -3 -5 -21 -17 -40 -26 -19 -9 -35 -21 -35 -26 0 -5 -4 -6 -10 -3
-5 3 -10 2 -10 -4 0 -7 -8 -7 -24 -1 -13 5 -27 6 -30 3 -3 -4 -6 -1 -6 5 0 7
-9 12 -20 12 -11 0 -20 5 -20 10 0 6 -11 10 -24 10 -13 0 -26 4 -28 10 -1 5
-15 11 -30 12 -16 1 -28 6 -28 10 0 4 -11 8 -25 8 -14 0 -25 4 -25 8 0 5 -6 9
-12 9 -25 1 -67 12 -84 21 -9 5 -25 7 -35 5 -11 -3 -19 -1 -19 4 0 5 -10 10
-22 11 -40 4 -57 8 -64 15 -13 12 -36 8 -28 -5 5 -8 1 -8 -10 1 -10 8 -30 15
-44 15 -15 1 -33 5 -39 9 -8 5 -13 4 -13 -2 0 -6 -5 -11 -11 -11 -5 0 -7 6 -3
13 5 7 0 6 -11 -3 -10 -8 -16 -10 -12 -3 10 16 -245 16 -255 -1 -6 -8 -8 -7
-8 2 0 6 -7 12 -16 12 -8 0 -13 -4 -10 -8 3 -5 -1 -9 -9 -9 -8 0 -12 4 -9 9 6
10 0 11 -10 1z"/>
</g>
</svg>
